<?xml version="1.0" standalone="no"?>
<!DOCTYPE svg PUBLIC "-//W3C//DTD SVG 20010904//EN"
 "http://www.w3.org/TR/2001/REC-SVG-20010904/DTD/svg10.dtd">
<svg version="1.0" xmlns="http://www.w3.org/2000/svg"
 width="700.000000pt" height="700.000000pt" viewBox="0 0 700.000000 700.000000"
 preserveAspectRatio="xMidYMid meet">
<metadata>
Created by potrace 1.11, written by Peter Selinger 2001-2013
</metadata>
<g transform="translate(0.000000,700.000000) scale(0.100000,-0.100000)"
fill="#000000" stroke="none">
<path d="M3290 6994 c-19 -2 -87 -9 -150 -15 -656 -62 -1295 -325 -1840 -758
-129 -102 -427 -402 -533 -536 -413 -521 -662 -1120 -744 -1785 -24 -200 -24
-600 0 -800 82 -665 331 -1264 744 -1785 106 -134 404 -434 533 -536 547 -434
1152 -684 1845 -761 154 -17 556 -17 710 0 693 77 1298 327 1845 761 129 102
427 402 533 536 413 521 662 1120 744 1785 24 200 24 600 0 800 -82 665 -331
1264 -744 1785 -106 134 -404 434 -533 536 -534 424 -1126 673 -1795 755 -122
14 -538 27 -615 18z m1268 -1420 c199 -42 397 -195 496 -383 65 -124 81 -197
80 -361 0 -128 -3 -154 -26 -222 -56 -168 -161 -305 -311 -407 -219 -149 -540
-161 -777 -29 -30 17 -84 54 -120 83 l-65 52 -510 -298 c-280 -164 -514 -300
-519 -302 -6 -2 -4 -30 3 -68 14 -70 17 -196 7 -274 l-7 -50 522 -303 522
-303 56 44 c31 24 81 58 111 75 198 111 462 122 673 28 192 -84 346 -257 415
-464 23 -68 26 -94 26 -222 1 -125 -2 -155 -22 -220 -65 -207 -193 -361 -383
-460 -195 -102 -436 -111 -641 -24 -222 93 -388 292 -444 530 -12 52 -15 99
-11 194 3 69 8 134 11 145 6 18 -55 56 -511 321 l-517 301 -73 -58 c-133 -106
-266 -156 -438 -166 -138 -8 -239 13 -371 77 -276 134 -437 409 -421 720 14
278 167 509 421 637 107 54 202 75 336 75 175 0 310 -44 448 -146 l63 -47 528
308 528 307 -4 135 c-4 104 -1 152 11 205 56 238 223 437 442 529 155 65 295
77 472 41z"/>
</g>
</svg>
