<svg xmlns="http://www.w3.org/2000/svg" xmlns:xlink="http://www.w3.org/1999/xlink" width="1024" height="1024" viewBox="0 0 1024 1024"><title>empty-album-art</title><g style="isolation:isolate"><rect width="1024" height="1024" style="fill:#161616"/><path d="M422.68,283.65l357.42-98.27v439q0,49.14-12.48,74.1t-42.4,41.21Q695.29,756,657.65,756q-43.19,0-68.95-24.77t-25.76-64q0-39.62,30.51-68.35t78.85-28.73a126,126,0,0,1,27.94,2.77q12.08,2.78,39.43,14.27V300.29L461.91,373.59V704.86q0,47.95-12.68,74.69t-43.59,42.6Q374.73,838,338.28,838q-43.19,0-68.35-24.37T244.76,750q0-41.61,30.11-69.94t78.85-28.33q30.91,0,68.95,18.23Z" transform="translate(-0.5 0.5)" style="fill:#d1d1d1"/></g></svg>